<!-- Generated by IcoMoon.io -->
<svg version="1.1" xmlns="http://www.w3.org/2000/svg" width="24" height="32" viewBox="0 0 24 32">
<title>icon-istanze-daintegrare</title>
<path fill="#0060c1" d="M5.666 3.334h8.709v1.583h-8.709c-0.874 0-1.583 0.709-1.583 1.583v19c0 0.874 0.709 1.583 1.583 1.583h12.667c0.874-0 1.583-0.709 1.583-1.583v-15.041h1.583v15.041c-0.001 1.748-1.418 3.166-3.166 3.166h-12.667c-1.748-0.001-3.166-1.418-3.166-3.166v-19c0.001-1.748 1.418-3.166 3.166-3.166h0z"></path>
<path fill="#0060c1" d="M14.375 8.084v-4.75l7.125 7.125h-4.75c-1.311-0.001-2.374-1.064-2.375-2.375v-0z"></path>
<path fill="#b8191a" d="M12.057 13.269c0.373 0 0.675 0.302 0.675 0.675v0 4.050h4.050c0.374 0 0.676 0.303 0.676 0.676s-0.303 0.676-0.676 0.676h-4.050v4.050c0 0.374-0.303 0.676-0.676 0.676s-0.676-0.303-0.676-0.676v0-4.053h-4.047c-0.374 0-0.676-0.303-0.676-0.676s0.303-0.676 0.676-0.676v0h4.050v-4.047c0-0.373 0.302-0.675 0.675-0.675h0z"></path>
</svg>
