<svg xmlns="http://www.w3.org/2000/svg" width="22.753" height="22.753" viewBox="0 0 22.753 22.753">
  <g id="Raggruppa_20768" data-name="Raggruppa 20768" transform="translate(-0.103 -0.103)">
    <g id="Raggruppa_20769" data-name="Raggruppa 20769" transform="translate(0.48 0.48)">
      <path id="Tracciato_61107" data-name="Tracciato 61107" d="M5.688,0A2.847,2.847,0,0,0,2.844,2.844V7.11H5.688V2.844H15.762l1.3,1.3V7.11h2.844V4.146a2.845,2.845,0,0,0-.831-2.013l-1.3-1.3A2.845,2.845,0,0,0,15.762,0ZM17.065,15.643v4.266H5.688V15.643Zm2.844,1.422h1.422a1.421,1.421,0,0,0,1.422-1.422V11.376a2.847,2.847,0,0,0-2.844-2.844H2.844A2.847,2.847,0,0,0,0,11.376v4.266a1.421,1.421,0,0,0,1.422,1.422H2.844v2.844a2.847,2.847,0,0,0,2.844,2.844H17.065a2.847,2.847,0,0,0,2.844-2.844ZM19.2,11.021a1.067,1.067,0,1,1-1.067,1.067A1.067,1.067,0,0,1,19.2,11.021" transform="translate(-0.377 -0.377)" fill="#0f6cb4"/>
    </g>
  </g>
</svg>
