<svg xmlns="http://www.w3.org/2000/svg" width="25.131" height="22.253" viewBox="0 0 25.131 22.253">
  <g id="Raggruppa_20750" data-name="Raggruppa 20750" transform="translate(-884.99 -5255.745)">
    <g id="Raggruppa_20748" data-name="Raggruppa 20748">
      <g id="Raggruppa_20747" data-name="Raggruppa 20747" transform="translate(900.356 5268.233)">
        <g id="Raggruppa_20636" data-name="Raggruppa 20636">
          <path id="Tracciato_60897" data-name="Tracciato 60897" d="M4.882,0A4.882,4.882,0,1,1,0,4.882,4.882,4.882,0,0,1,4.882,0Z" fill="#6c757d"/>
        </g>
      </g>
      <path id="baseline-unsubscribe-24px" d="M16.736,21.228a5.511,5.511,0,0,1-.065-.651,6.513,6.513,0,0,1,6.51-6.51,6.424,6.424,0,0,1,3.255.9V5.6a2.612,2.612,0,0,0-2.6-2.6H5.6A2.612,2.612,0,0,0,3,5.6v13.02a2.612,2.612,0,0,0,2.6,2.6Zm-2.018-8.463L5.6,8.208V5.6l9.114,4.557L23.832,5.6v2.6Z" transform="translate(881.99 5252.745)" fill="#6c757d"/>
      <path id="Tracciato_61095" data-name="Tracciato 61095" d="M13.784,10.178,12.367,11.6,10.95,10.178l-.772.772L11.6,12.367l-1.417,1.417.772.772,1.417-1.417,1.417,1.417.772-.772-1.417-1.417,1.417-1.417Z" transform="translate(892.872 5260.749)" fill="#fff"/>
    </g>
  </g>
</svg>
