<!-- Generated by IcoMoon.io -->
<svg version="1.1" xmlns="http://www.w3.org/2000/svg" width="24" height="32" viewBox="0 0 24 32">
<title>icon-istanze-presentate</title>
<path fill="#0060c1" d="M5.666 3.334h8.709v1.583h-8.709c-0.874 0-1.583 0.709-1.583 1.583v19c0 0.874 0.709 1.583 1.583 1.583h12.667c0.874-0 1.583-0.709 1.583-1.583v-15.041h1.583v15.041c-0.001 1.748-1.418 3.166-3.166 3.166h-12.667c-1.748-0.001-3.166-1.418-3.166-3.166v-19c0.001-1.748 1.418-3.166 3.166-3.166h0z"></path>
<path fill="#0060c1" d="M14.375 8.084v-4.75l7.125 7.125h-4.75c-1.311-0.001-2.374-1.064-2.375-2.375v-0z"></path>
<path fill="#b8191a" d="M13.117 21.275l3.924-2.819c0.183-0.109 0.304-0.306 0.304-0.531 0-0.116-0.032-0.225-0.088-0.317l0.002 0.003c-0.053-0.091-0.127-0.164-0.215-0.216l-0.003-0.001-3.924-2.819c-0.089-0.053-0.197-0.085-0.312-0.085-0.339 0-0.615 0.275-0.615 0.614v1.103c-1.289 0-5.155 0-6.014 6.873 1.090-2.064 3.222-3.446 5.676-3.446 0.119 0 0.237 0.003 0.354 0.010l-0.016-0.001v1.101c0 0 0 0.001 0 0.001 0 0.34 0.276 0.616 0.616 0.616 0.115 0 0.222-0.031 0.314-0.086l-0.003 0.002z"></path>
</svg>
