<svg xmlns="http://www.w3.org/2000/svg" xmlns:xlink="http://www.w3.org/1999/xlink" width="18" height="24" viewBox="0 0 18 24">
  <defs>
    <clipPath id="clip-path">
      <rect id="Rettangolo_146345" data-name="Rettangolo 146345" width="18" height="24" fill="#0f6cb4"/>
    </clipPath>
  </defs>
  <g id="Raggruppa_20848" data-name="Raggruppa 20848" transform="translate(-0.067 -0.09)">
    <g id="Raggruppa_20850" data-name="Raggruppa 20850" transform="translate(0.067 0.09)" clip-path="url(#clip-path)">
      <path id="Tracciato_64933" data-name="Tracciato 64933" d="M2.987,0A2.989,2.989,0,0,0,0,2.987v17.92a2.989,2.989,0,0,0,2.987,2.987H14.934a2.989,2.989,0,0,0,2.987-2.987V2.987A2.989,2.989,0,0,0,14.934,0ZM4.48,2.987h8.96A1.492,1.492,0,0,1,14.934,4.48V5.973A1.492,1.492,0,0,1,13.44,7.467H4.48A1.492,1.492,0,0,1,2.987,5.973V4.48A1.492,1.492,0,0,1,4.48,2.987m1.493,7.467A1.493,1.493,0,1,1,4.48,8.96a1.493,1.493,0,0,1,1.493,1.493M4.48,16.427a1.493,1.493,0,1,1,1.493-1.493A1.493,1.493,0,0,1,4.48,16.427M2.987,19.414A1.492,1.492,0,0,1,4.48,17.92H8.96a1.493,1.493,0,0,1,0,2.987H4.48a1.492,1.492,0,0,1-1.493-1.493M8.96,11.947a1.493,1.493,0,1,1,1.493-1.493A1.493,1.493,0,0,1,8.96,11.947m1.493,2.987A1.493,1.493,0,1,1,8.96,13.44a1.493,1.493,0,0,1,1.493,1.493m2.987-2.987a1.493,1.493,0,1,1,1.493-1.493,1.493,1.493,0,0,1-1.493,1.493m1.493,2.987A1.493,1.493,0,1,1,13.44,13.44a1.493,1.493,0,0,1,1.493,1.493M13.44,20.907a1.493,1.493,0,1,1,1.493-1.493,1.493,1.493,0,0,1-1.493,1.493" transform="translate(-0.033 -0.045)" fill="#0f6cb4"/>
    </g>
  </g>
</svg>
