<!-- Generated by IcoMoon.io -->
<svg version="1.1" xmlns="http://www.w3.org/2000/svg" width="24" height="32" viewBox="0 0 24 32">
<title>icon-istanze-bozza</title>
<path fill="#0060c1" d="M5.666 3.334h8.709v1.583h-8.709c-0.874 0-1.583 0.709-1.583 1.583v19c0 0.874 0.709 1.583 1.583 1.583h12.667c0.874-0 1.583-0.709 1.583-1.583v-15.041h1.583v15.041c-0.001 1.748-1.418 3.166-3.166 3.166h-12.667c-1.748-0.001-3.166-1.418-3.166-3.166v-19c0.001-1.748 1.418-3.166 3.166-3.166h0z"></path>
<path fill="#0060c1" d="M14.375 8.084v-4.75l7.125 7.125h-4.75c-1.311-0.001-2.374-1.064-2.375-2.375v-0z"></path>
<path fill="#b8191a" d="M17.213 14.532c0.082 0.082 0.133 0.195 0.133 0.321s-0.051 0.238-0.133 0.32v0l-0.947 0.947-1.817-1.817 0.947-0.947c0.082-0.083 0.196-0.134 0.322-0.134s0.24 0.051 0.322 0.134l1.176 1.176zM15.625 16.764l-1.818-1.82-6.19 6.193c-0.048 0.048-0.086 0.107-0.108 0.173l-0.001 0.003-0.732 2.194c-0.007 0.021-0.012 0.046-0.012 0.072 0 0.1 0.065 0.184 0.154 0.215l0.002 0c0.021 0.007 0.046 0.012 0.072 0.012s0.050-0.004 0.073-0.012l-0.002 0 2.192-0.732c0.069-0.023 0.128-0.060 0.176-0.109l6.192-6.188z"></path>
</svg>
