<svg xmlns="http://www.w3.org/2000/svg" width="26.9" height="31.248" viewBox="0 0 26.9 31.248">
  <g id="Raggruppa_20655" data-name="Raggruppa 20655" transform="translate(-252.29 -5644.309)">
    <path id="Tracciato_64922" data-name="Tracciato 64922" d="M9.364,0h3.468a1.038,1.038,0,0,1,1.04,1.04V8.323h3.8A.865.865,0,0,1,18.285,9.8l-6.594,6.6a.84.84,0,0,1-1.183,0l-6.6-6.6a.865.865,0,0,1,.611-1.478H8.323V1.04A1.038,1.038,0,0,1,9.364,0ZM22.2,16.3v4.855a1.038,1.038,0,0,1-1.04,1.04H1.04A1.038,1.038,0,0,1,0,21.155V16.3a1.038,1.038,0,0,1,1.04-1.04H7.4l2.124,2.124a2.221,2.221,0,0,0,3.147,0L14.8,15.259h6.359A1.038,1.038,0,0,1,22.2,16.3ZM16.82,20.115a.867.867,0,1,0-.867.867A.87.87,0,0,0,16.82,20.115Zm2.774,0a.867.867,0,1,0-.867.867A.87.87,0,0,0,19.594,20.115Z" transform="translate(252.29 5644.309)" fill="#6c757d"/>
    <g id="Raggruppa_20654" data-name="Raggruppa 20654" transform="translate(-4066.746 2073.21) rotate(-45)">
      <g id="baseline-unsubscribe-24px" transform="translate(500.325 5585.309)" fill="#6c757d">
        <path d="M 25.47202110290527 28.36133003234863 C 22.37567138671875 28.36133003234863 19.85661125183105 25.84226989746094 19.85661125183105 22.74592018127441 C 19.85661125183105 19.64957046508789 22.37567138671875 17.1305103302002 25.47202110290527 17.1305103302002 C 28.5683708190918 17.1305103302002 31.08743095397949 19.64957046508789 31.08743095397949 22.74592018127441 C 31.08743095397949 25.84226989746094 28.5683708190918 28.36133003234863 25.47202110290527 28.36133003234863 Z" stroke="none"/>
        <path d="M 25.47202110290527 17.6305103302002 C 22.65137100219727 17.6305103302002 20.35661125183105 19.92527008056641 20.35661125183105 22.74592018127441 C 20.35661125183105 25.56657028198242 22.65137100219727 27.86133003234863 25.47202110290527 27.86133003234863 C 28.29267120361328 27.86133003234863 30.58743095397949 25.56657028198242 30.58743095397949 22.74592018127441 C 30.58743095397949 19.92527008056641 28.29267120361328 17.6305103302002 25.47202110290527 17.6305103302002 M 25.47202110290527 16.6305103302002 C 28.84423065185547 16.6305103302002 31.58743095397949 19.37371063232422 31.58743095397949 22.74592018127441 C 31.58743095397949 26.11812973022461 28.84423065185547 28.86133003234863 25.47202110290527 28.86133003234863 C 22.09981155395508 28.86133003234863 19.35661125183105 26.11812973022461 19.35661125183105 22.74592018127441 C 19.35661125183105 19.37371063232422 22.09981155395508 16.6305103302002 25.47202110290527 16.6305103302002 Z" stroke="none" fill="#fff"/>
      </g>
      <path id="Tracciato_64921" data-name="Tracciato 64921" d="M13.924,8,11.6,10.328,9.267,8,8,9.267,10.328,11.6,8,13.924l1.267,1.267L11.6,12.863l2.328,2.328,1.267-1.267L12.863,11.6l2.328-2.328Z" transform="translate(514.202 5596.461)" fill="#fff"/>
    </g>
  </g>
</svg>
